<?xml version="1.0" encoding="utf-8"?>
<!-- Generator: Adobe Illustrator 19.2.1, SVG Export Plug-In . SVG Version: 6.00 Build 0)  -->
<svg version="1.1" id="Layer_1" xmlns="http://www.w3.org/2000/svg" xmlns:xlink="http://www.w3.org/1999/xlink" x="0px" y="0px"
	 viewBox="0 0 310.9 272.5" style="enable-background:new 0 0 310.9 272.5;" xml:space="preserve">
<style type="text/css">
	.st0{fill:#00B1FF;}
	.st1{fill:#00CFFF;}
	.st2{fill:#00DBFF;}
	.st3{fill:#00E7FF;}
</style>
<g>
	<circle class="st0" cx="155.1" cy="96.5" r="17.8"/>
	<circle class="st1" cx="155.1" cy="140" r="12.2"/>
	<circle class="st2" cx="155.1" cy="171.3" r="7.5"/>
	<circle class="st3" cx="155.1" cy="192.4" r="3.3"/>
	
		<ellipse transform="matrix(0.7558 -0.6548 0.6548 0.7558 -51.4725 110.8712)" class="st1" cx="122.9" cy="124.4" rx="12.2" ry="12.2"/>
	<ellipse transform="matrix(0.7558 -0.6548 0.6548 0.7558 -71.304 100.0381)" class="st2" cx="98.5" cy="145.6" rx="7.5" ry="7.5"/>
	<ellipse transform="matrix(0.7558 -0.6548 0.6548 0.7558 -85.0677 92.9446)" class="st3" cx="82.1" cy="160.5" rx="3.3" ry="3.3"/>
	
		<ellipse transform="matrix(0.6548 -0.7558 0.7558 0.6548 -29.4447 184.4325)" class="st1" cx="187.2" cy="124.4" rx="12.2" ry="12.2"/>
	
		<ellipse transform="matrix(0.6548 -0.7558 0.7558 0.6548 -37.0103 210.2146)" class="st2" cx="211.6" cy="145.6" rx="7.5" ry="7.5"/>
	
		<ellipse transform="matrix(0.6548 -0.7558 0.7558 0.6548 -42.3371 228.3671)" class="st3" cx="228.8" cy="160.5" rx="3.3" ry="3.3"/>
</g>
</svg>
