<?xml version="1.0" encoding="utf-8"?>
<!-- Generator: Adobe Illustrator 19.2.1, SVG Export Plug-In . SVG Version: 6.00 Build 0)  -->
<svg version="1.1" id="Layer_1" xmlns="http://www.w3.org/2000/svg" xmlns:xlink="http://www.w3.org/1999/xlink" x="0px" y="0px"
	 viewBox="0 0 464.1 349.9" style="enable-background:new 0 0 464.1 349.9;" xml:space="preserve">
<style type="text/css">
	.st0{fill:#133054;}
	.st1{fill:#00B1FF;}
	.st2{fill:#00CFFF;}
	.st3{fill:#00DBFF;}
	.st4{fill:#00E7FF;}
</style>
<g>
	<g>
		<path class="st0" d="M103.4,229.7l20.5,43.4h-9.6l-12.4-26.4l-13.4,26.4h-9.7l22.1-43.4H103.4z"/>
		<path class="st0" d="M167.7,240.2c-8.4-5.5-21.1-0.4-21.1,11.3c0,12.2,13.4,17.1,21.6,10.9l5.6,6.4c-3.9,3.2-8.9,5.2-14.4,5.2
			c-12.4,0-22.5-10.1-22.5-22.5c0-12.4,10.1-22.5,22.5-22.5c5.2,0,10,1.8,13.9,4.8L167.7,240.2z"/>
		<path class="st0" d="M220.1,240.2c-8.4-5.5-21.1-0.4-21.1,11.3c0,12.2,13.4,17.1,21.6,10.9l5.6,6.4c-3.9,3.2-8.9,5.2-14.4,5.2
			c-12.4,0-22.5-10.1-22.5-22.5c0-12.4,10.1-22.5,22.5-22.5c5.2,0,10,1.8,13.9,4.8L220.1,240.2z"/>
		<path class="st0" d="M285.4,251.4c0,12.4-10.1,22.5-22.5,22.5c-12.4,0-22.5-10.1-22.5-22.5c0-12.4,10.1-22.5,22.5-22.5
			C275.3,228.9,285.4,239,285.4,251.4z M249.3,251.4c0,7.5,6.1,13.6,13.6,13.6c7.5,0,13.6-6.1,13.6-13.6c0-7.5-6.1-13.6-13.6-13.6
			C255.4,237.8,249.3,243.9,249.3,251.4z"/>
		<path class="st0" d="M323.3,273.1l-8.1-17.4h-4.3v17.3h-8.7v-43.4h16.4c7.2,0,13,5.9,13,13.1c0,5.3-3.1,9.8-7.6,11.8l8.6,18.6
			H323.3z M310.8,238.3v8.7h7.7c2.4,0,4.3-1.9,4.3-4.3c0-2.4-1.9-4.4-4.3-4.4H310.8z"/>
		<path class="st0" d="M363.6,229.7c2.9,0,5.8,0.6,8.4,1.7c2.6,1.1,4.9,2.7,6.9,4.6c2,2,3.6,4.3,4.6,6.9c1.2,2.7,1.7,5.5,1.7,8.4
			c0,3-0.6,5.8-1.7,8.5c-1.1,2.6-2.6,4.9-4.6,6.9c-2,2-4.3,3.6-6.9,4.6c-2.7,1.2-5.5,1.7-8.4,1.7h-8.7v-0.1h-3.5v-43.4H363.6z
			 M363.6,264.4c7.2,0,13-5.9,13-13.1c0-7.2-5.8-13-13-13h-3.6v26.1H363.6z"/>
	</g>
	<g>
		<circle class="st1" cx="233" cy="96.5" r="17.8"/>
		<circle class="st2" cx="233" cy="140" r="12.2"/>
		<circle class="st3" cx="233" cy="171.3" r="7.5"/>
		<circle class="st4" cx="233" cy="192.4" r="3.3"/>
		
			<ellipse transform="matrix(0.7558 -0.6548 0.6548 0.7558 -32.4474 161.8884)" class="st2" cx="200.8" cy="124.4" rx="12.2" ry="12.2"/>
		
			<ellipse transform="matrix(0.7558 -0.6548 0.6548 0.7558 -52.2789 151.0553)" class="st3" cx="176.4" cy="145.6" rx="7.5" ry="7.5"/>
		
			<ellipse transform="matrix(0.7558 -0.6548 0.6548 0.7558 -66.0426 143.9617)" class="st4" cx="160" cy="160.5" rx="3.3" ry="3.3"/>
		
			<ellipse transform="matrix(0.6548 -0.7558 0.7558 0.6548 -2.5465 243.3226)" class="st2" cx="265.1" cy="124.4" rx="12.2" ry="12.2"/>
		
			<ellipse transform="matrix(0.6548 -0.7558 0.7558 0.6548 -10.1122 269.1048)" class="st3" cx="289.5" cy="145.6" rx="7.5" ry="7.5"/>
		
			<ellipse transform="matrix(0.6548 -0.7558 0.7558 0.6548 -15.4389 287.2573)" class="st4" cx="306.7" cy="160.5" rx="3.3" ry="3.3"/>
	</g>
</g>
</svg>
